<svg xmlns="http://www.w3.org/2000/svg" viewBox="0 0 95.26 80.06"><defs><style>.cls-1{fill:#d99578;}</style></defs><g id="Calque_2" data-name="Calque 2"><g id="Calque_1-2" data-name="Calque 1"><path class="cls-1" d="M26.25,25.08c8,.26,14,2.49,19.06,6.86,1.77,1.51,3,1.41,4.74-.05,6.28-5.31,13.69-7.84,21.74-6.48,9.08,1.54,16.3,6.39,20.51,15C99,54.07,93.82,68.93,81.37,76.25c-6.2,3.65-13,4.94-20.32,2.7a29.67,29.67,0,0,1-11.27-6c-1.66-1.46-3.11-1-4.64.32a26,26,0,0,1-17.48,6.7c-9.92,0-17.62-4.41-23-12.54C-4.45,53.77.44,37.07,14,28.71,17.05,26.83,23,24.76,26.25,25.08ZM68,76.85A24.05,24.05,0,0,0,92.46,52.78c.11-13.2-10-24.42-24.53-24.52A24.3,24.3,0,1,0,68,76.85Zm-40.56,0c6.19,0,11.71-1.82,16.35-6.13a3,3,0,0,0,.71-4.17c-5.23-9.31-5.34-18.64,0-28,.9-1.59.84-2.86-.66-4.15-7.74-6.66-16.36-7.72-25.76-4.27C6.45,34.43-.11,48.1,4.13,60.26,7.66,70.39,16.09,76.81,27.43,76.85Z"/><path class="cls-1" d="M48.72,8.52c0,2.21.06,4.43,0,6.64,0,.53-.59,1-.91,1.52-.4-.51-1.13-1-1.14-1.55q-.12-6.78,0-13.58c0-.52.59-1,.9-1.55.39.52,1.09,1,1.12,1.58.13,2.3.06,4.62.06,6.94Z"/><path class="cls-1" d="M55.7,18.55c2.62-2.15,5.18-4.37,7.91-6.42a3.43,3.43,0,0,1,2.44.13c.28.11.36,1.37,0,1.7a60,60,0,0,1-6.42,5.43c-.7.5-2.23.19-3.38.24Z"/><path class="cls-1" d="M39.7,18.7c-.76,1.06-1,1.77-1.39,1.85a3.62,3.62,0,0,1-2.45-.15,76.3,76.3,0,0,1-6.69-6.25c-.2-.21,1-1.53,1.62-2.33Z"/><path class="cls-1" d="M63.62,58.21a20.54,20.54,0,0,1,1.57,1.86c1.66,2.52,3.57,3.39,6.35,2.54,2.29-.69,3-2.55,3.27-4.81.08-.81.82-1.54,1.26-2.31a7.39,7.39,0,0,1,1.17,2.42c.28,4.06-1.39,6.19-6,8-2,.77-5.77-.61-7.48-2.83C62.72,61.71,61.89,60.24,63.62,58.21Z"/><path class="cls-1" d="M58.45,45.65a18.46,18.46,0,0,1,2.82,2.28c1,1.27.61,2.09-1.05,2.3-.77.09-1.52.33-2.29.48s-1.5.27-2.25.4c-.1-.86-.57-2-.21-2.53A17.67,17.67,0,0,1,58.45,45.65Z"/><path class="cls-1" d="M71.64,44.7c1-1,1.85-2.22,3-2.76,1.55-.72,3,.21,3.74,1.64.59,1.05.32,1.88-1.1,2.12-1.07.19-2.09.78-3.16.86a6.82,6.82,0,0,1-2.3-.73Z"/><path class="cls-1" d="M21.4,57.18c1.72,1.91,2.82,4.47,6.08,4.49S31.63,59,34.05,56.6c.22,1.58.74,2.68.42,3.4a7.8,7.8,0,0,1-6.93,4.86,7.89,7.89,0,0,1-7.2-4.81c-.29-.8.15-1.86.26-2.79Z"/><circle class="cls-1" cx="17.2" cy="52.18" r="2.5"/><circle class="cls-1" cx="37.2" cy="51.18" r="2.5"/><circle class="cls-1" cx="47.7" cy="20.68" r="2"/></g></g></svg>