<svg xmlns="http://www.w3.org/2000/svg" viewBox="0 0 95.13 94.23"><defs><style>.cls-1{fill:#d99578;}</style></defs><g id="Calque_2" data-name="Calque 2"><g id="Calque_1-2" data-name="Calque 1"><path class="cls-1" d="M95.12,47.13q0,13.5,0,27c0,3.16-.63,3.77-3.85,3.78-8.66,0-17.33,0-26,0-3.22,0-3.64.41-3.67,3.57s.06,6.5,0,9.75-1.13,3.69-3.73,2c-2.77-1.82-5.47-3.79-8.38-5.36a4.6,4.6,0,0,0-3.79,0c-3,1.62-5.75,3.62-8.59,5.5-2.28,1.5-3.3,1.11-3.46-1.64-.17-3.08-.07-6.17-.08-9.25,0-4.41-.15-4.56-4.45-4.56q-12.49,0-25,0c-3.53,0-4.07-.54-4.07-4Q0,47.24,0,20.61C0,16.44.6,16,5.47,14.34c6.65-2.26,13.19-4.81,19.8-7.18C30,5.45,35,4.27,39.48,2.06a16.9,16.9,0,0,1,16.18,0C60.52,4.45,65.83,5.94,71,7.77c4.82,1.73,9.68,3.36,14.5,5.09a57.38,57.38,0,0,1,8,3.22c.91.5,1.54,2.32,1.55,3.55C95.18,28.79,95.12,38,95.12,47.13ZM47.68,19.47c-9.58,0-19.16,0-28.74,0-2.07,0-3.28.52-3.27,2.94q.08,24.49,0,49c0,2.21,1,3,3,2.91,3.58,0,7.16,0,10.74,0,3.89,0,4.78-1.11,3.73-4.87a6.51,6.51,0,0,0-1.72-2.62c-8.12-8.1-8.55-22.08-.43-31,6.53-7.14,14.77-8.25,23.34-6.2,6.43,1.55,11,6.27,13.75,12.47a22.3,22.3,0,0,1,.56,16.5c-1.14,3.53-3.39,6.18-5.64,9-1,1.28-1.23,3.54-1.06,5.28.05.59,2.38,1.29,3.7,1.36,3.32.2,6.66.08,10,.06s3.74-.28,3.75-3.66q0-23.74,0-47.5c0-3.38-.28-3.65-3.75-3.66C66.34,19.45,57,19.47,47.68,19.47Zm0,50.5c11.41.58,19.47-9.43,19.21-19.2A19.34,19.34,0,0,0,28.22,51C28.12,60.82,36.19,70.65,47.69,70ZM3.48,46.88q0,12,0,24c0,3.12.26,3.36,3.46,3.41H8.2c4.16,0,4.32-.16,4.32-4.41q0-22.38,0-44.76c0-5.8,0-5.8-5.81-5.66-2.94.07-3.22.34-3.22,3.4Q3.47,34.89,3.48,46.88Zm88.16,0q0-12,0-24c0-3.12-.27-3.36-3.47-3.4H86.92c-4.15,0-4.32.17-4.32,4.42V68.64c0,5.79,0,5.79,5.82,5.65,2.94-.07,3.21-.33,3.22-3.4Q91.66,58.88,91.64,46.88ZM15.76,14.38l.08.89a12.21,12.21,0,0,0,2.48.53q29.21,0,58.42,0a15.43,15.43,0,0,0,2.94-.7c-.57-.67-.73-1-1-1.14-4.48-1.65-9-3.27-13.48-4.9-4.88-1.76-9.7-3.7-14.66-5.21a11.22,11.22,0,0,0-5.92,0c-3.33.9-6.48,2.4-9.74,3.57-4.73,1.69-9.5,3.29-14.24,5C19,13,17.39,13.7,15.76,14.38ZM58.48,80.23h0c0-1.83,0-3.66,0-5.49,0-2.73-.7-3.22-3.38-2.6-1.92.44-3.85,1.31-5.75,1.24a88.18,88.18,0,0,1-9.51-1.27c-1.42-.21-3.11-.67-3.17,1.52-.11,4.5-.09,9,0,13.5,0,1.62.95,2,2.35,1C41,86.78,43,85.64,44.89,84.28a4.06,4.06,0,0,1,5.26-.06c1.89,1.35,3.92,2.5,5.83,3.83s2.42.41,2.48-1.32C58.54,84.57,58.48,82.4,58.48,80.23Z"/></g></g></svg>