<svg xmlns="http://www.w3.org/2000/svg" viewBox="0 0 80.53 95.2"><defs><style>.cls-1{fill:#d99578;}</style></defs><g id="Calque_2" data-name="Calque 2"><g id="Calque_1-2" data-name="Calque 1"><path class="cls-1" d="M52.07,86a65.44,65.44,0,0,1,6.77,2.51,15.06,15.06,0,0,1,4.08,3.06,3.09,3.09,0,0,1,.54,2.68c-.18.52-1.49.9-2.3.91-5.83.08-11.66,0-17.49,0-8,0-16,0-24,0-.94,0-2.61-.53-2.67-1-.15-1.08.11-2.8.85-3.31A53.88,53.88,0,0,1,25,87a25.48,25.48,0,0,1,3.35-1c-2.77-2.17-4.87-3.95-7.1-5.56A41.86,41.86,0,0,1,6.72,63.13,20.3,20.3,0,0,1,7,45.72c1.21-2.5,1.36-4.13-1-6.15-9.23-8.07-7.68-23.35,3.47-30a15.66,15.66,0,0,1,5.31-2c2.18-.36,3-1.33,3-3.46C17.8,0,17.88,0,21.89,0H60.12c3.21,0,3.64.37,3.58,3.59,0,2.22.36,3.36,2.93,4.21C76.55,11.08,82,19,80.18,30a16.17,16.17,0,0,1-6,10.07c-1.49,1.2-2.11,2.28-1.33,4.4a35.29,35.29,0,0,1,2,8.92c.81,9.18-3.86,16.11-10,22.14-3,2.95-6.58,5.29-9.88,7.93C54,84.17,53.21,85,52.07,86ZM40.56,2.54v0c-5.92,0-11.83,0-17.74,0-1.46,0-2.4.53-2.53,2.12C20.19,6,20.44,7,22,7.53a11.78,11.78,0,0,1,8.54,10.34c.58,4.63-2,8.14-5.46,11.14A117.82,117.82,0,0,0,13.71,39.74C9.3,44.69,6.92,50.58,8.25,57.41c.16.81,1,1.5,1.47,2.25.51-.83,1.39-1.63,1.46-2.5.21-2.57.06-5.16.14-7.74,0-2,.92-3.07,3.11-2.94s4.33,0,6.5,0c5.64.11,6-1.21,5.93,6s0,7.34,7.26,7.15c2.89-.07,3.43-.58,3.52-3.57a61.85,61.85,0,0,0,0-6.24c-.17-2.44.65-3.58,3.24-3.36,1.9.17,3.83,0,5.74,0,6.61,0,6.61,0,6.61,6.56,0,6.85,0,6.8,6.87,6.61,2.23-.06,3.19-1,3.15-3.15,0-2.5,0-5,0-7.5a2.2,2.2,0,0,1,2.44-2.5c.75,0,1.5,0,2.24-.06,2.3-.2,2.62-.8,1.67-2.81-2.91-6.16-7.91-10.39-13.16-14.4-2.61-2-4.89-4.22-5.46-7.71-1.12-6.8,1.66-11.67,8.2-14C60.56,7,61.62,6.2,61,4.81a5.8,5.8,0,0,0-2.52-2.19c-.5-.29-1.3-.08-2-.08ZM58.19,92.28c-2.29-2.39-3.54-2.89-6.42-3.11a27.77,27.77,0,0,1-4.88-.81A2.17,2.17,0,0,1,45.45,87c-.05-.48.7-1.18,1.24-1.56,4.5-3.12,9.34-5.82,13.47-9.35C67.26,70,73.1,63,72.25,52.67c-.24-2.89-.81-3.59-3.28-3.62s-3.11,1.46-3.11,3.55c0,2.42,0,4.84,0,7.25,0,1.65-.68,2.44-2.41,2.38-2.24-.07-4.5,0-6.74,0-5.93-.12-6.5,1.36-6.43-6.34.06-7.09,0-7.06-7.09-6.86-2.26.06-3.19,1-3.21,3.17,0,2.58-.06,5.16,0,7.74,0,1.56-.67,2.3-2.25,2.28-2.25,0-4.5,0-6.75,0-7.57,0-6.63.8-6.67-6.66,0-6.91,0-6.88-7-6.53-2,.1-2.87,1-2.87,2.92,0,2.67.11,5.35-.11,8a3,3,0,0,1-1.68,2.18c-2.82.87-3,1-1.49,3.65a19.09,19.09,0,0,0,1.3,2.12c5.12,7,11.76,12.12,19.27,16.27A35.35,35.35,0,0,1,35.46,87c-2.3,2-4.62,2.15-6.94,2.19a8.55,8.55,0,0,0-6.67,3.11ZM2.72,26.06A17.07,17.07,0,0,0,5.66,35.4c2.89,4.07,4.08,4.16,7.39.56.12-.13.24-.24.36-.35,3.62-3.16,7.18-6.4,10.88-9.46a9.39,9.39,0,0,0,2.55-11.31C25.29,11.3,20.42,9,16.29,9.92,8.74,11.58,2.65,17.53,2.72,26.06Zm75.19.14c.25-4.24-2-9.68-5.41-12a36.73,36.73,0,0,0-6.23-3.45c-4.76-2.1-9.31-.43-12.07,4.22-2,3.36-.78,8.28,2.53,11.23C60.91,29.9,65,33.76,69,37.62c1.22,1.15,2.16,1.48,3.59.19A15.76,15.76,0,0,0,77.91,26.2Z"/></g></g></svg>