<svg xmlns="http://www.w3.org/2000/svg" viewBox="0 0 95.16 95.22"><defs><style>.cls-1{fill:#d99578;}</style></defs><g id="Calque_2" data-name="Calque 2"><g id="Calque_1-2" data-name="Calque 1"><path class="cls-1" d="M47.72,0Q60.34,0,73,0c3.33,0,4.18.82,4.19,4.09q0,19.49,0,39c0,3.3-.85,4.11-4.18,4.11H22.25c-3.33,0-4.19-.82-4.19-4.09q0-19.49,0-39c0-3.3.84-4.1,4.18-4.11Q35,0,47.72,0ZM71.25,34.54A21.93,21.93,0,0,0,72,30.87c0-7.58,0-15.16.06-22.74,0-2.16-.87-3-3-3q-21.48.06-43,0c-2.1,0-3,.77-3,2.94q.07,15.48,0,31c0,2.18.93,2.95,3,2.91,4-.07,8,.15,12-.1a7.47,7.47,0,0,0,4.33-1.86c4.72-4.45,9.24-9.12,13.83-13.71,3.17-3.15,3.43-3.14,6.6,0C65.47,28.88,68.07,31.42,71.25,34.54Zm-1,6.18c-3.17-3.13-6.11-6.15-9.22-9a2.71,2.71,0,0,0-2.62-.18c-3.22,2.92-6.27,6-9.43,9.14C51.48,42.45,67.58,42.48,70.24,40.72Z"/><path class="cls-1" d="M72,80.44c0-4.08,0-8.16,0-12.24,0-2.49-.5-2.75-2.8-1.7A50.78,50.78,0,0,1,42.08,71a48.64,48.64,0,0,1-16.17-4.51c-2.22-1.1-2.72-.76-2.74,1.78,0,8.08-.06,16.16,0,24.24,0,1.86-.5,2.73-2.53,2.72S18,94.55,18,92.59c.07-7.41,0-14.83,0-22.24,0-3.19-.21-3.15-3.17-2.27-4,1.2-8.12,2.15-12.21,3C.78,71.54,0,70.58,0,68.6S.72,66,2.64,66a18.34,18.34,0,0,0,13-4.73c1.13-1.05,1.53-2.84,2.43-4.18a29,29,0,0,1,2.5-3c.87.86,2.14,1.57,2.54,2.62,1.26,3.33,4.11,4.78,7,6a44.38,44.38,0,0,0,23.67,3c5.52-.75,11.19-1.84,15.68-5.63,1.13-1,1.72-2.54,2.7-3.71.74-.87,1.75-2.17,2.59-2.13A3.41,3.41,0,0,1,77,56.62C77.7,61,80.9,63,84.41,64.29A36.37,36.37,0,0,0,93.13,66c1.93.21,2,1.26,2,2.71s-.37,2.84-2.18,2.45C88.64,70.2,84.3,69.2,80,68c-2.52-.72-2.85-.73-2.87,1.94q-.08,11.37,0,22.74c0,1.78-.57,2.52-2.43,2.56-2.09,0-2.78-.76-2.72-2.79.11-4,0-8,0-12Z"/><path class="cls-1" d="M41.69,23.17a5.78,5.78,0,0,1-5.61-5.49A5.77,5.77,0,0,1,41.51,12a5.78,5.78,0,0,1,5.61,5.49A5.78,5.78,0,0,1,41.69,23.17Z"/></g></g></svg>