<svg width="30" height="30" viewBox="0 0 30 30" fill="none" xmlns="http://www.w3.org/2000/svg">
<path d="M15 0.46875C6.97459 0.46875 0.46875 6.97459 0.46875 15C0.46875 23.0254 6.97459 29.5312 15 29.5312C23.0254 29.5312 29.5312 23.0254 29.5312 15C29.5312 6.97459 23.0254 0.46875 15 0.46875ZM15 3.28125C21.4765 3.28125 26.7188 8.52252 26.7188 15C26.7188 21.4765 21.4775 26.7188 15 26.7188C8.52352 26.7188 3.28125 21.4775 3.28125 15C3.28125 8.52352 8.52252 3.28125 15 3.28125ZM23.2151 10.9141L21.8946 9.58295C21.6212 9.30727 21.176 9.30545 20.9003 9.57897L12.6179 17.7947L9.11449 14.2629C8.84104 13.9872 8.39584 13.9854 8.12016 14.2588L6.78896 15.5793C6.51328 15.8528 6.51146 16.298 6.78498 16.5737L12.1042 21.936C12.3776 22.2117 12.8228 22.2135 13.0985 21.94L23.2112 11.9085C23.4868 11.635 23.4885 11.1898 23.2151 10.9141V10.9141Z" fill="white"/>
</svg>
